<svg width="1272" height="387" viewBox="0 0 1272 387" fill="none" xmlns="http://www.w3.org/2000/svg">
<circle cx="1100.5" cy="3.5" r="3.5" fill="#DFEEFF"/>
<circle cx="1100.5" cy="24.5" r="3.5" fill="#DFEEFF"/>
<circle cx="1100.5" cy="45.5" r="3.5" fill="#DFEEFF"/>
<circle cx="1100.5" cy="66.5" r="3.5" fill="#DFEEFF"/>
<circle cx="1100.5" cy="87.5" r="3.5" fill="#DFEEFF"/>
<circle cx="1100.5" cy="108.5" r="3.5" fill="#DFEEFF"/>
<circle cx="1100.5" cy="129.5" r="3.5" fill="#DFEEFF"/>
<circle cx="1100.5" cy="150.5" r="3.5" fill="#DFEEFF"/>
<circle cx="1121.5" cy="3.5" r="3.5" fill="#DFEEFF"/>
<circle cx="1121.5" cy="24.5" r="3.5" fill="#DFEEFF"/>
<circle cx="1121.5" cy="45.5" r="3.5" fill="#DFEEFF"/>
<circle cx="1121.5" cy="66.5" r="3.5" fill="#DFEEFF"/>
<circle cx="1121.5" cy="87.5" r="3.5" fill="#DFEEFF"/>
<circle cx="1121.5" cy="108.5" r="3.5" fill="#DFEEFF"/>
<circle cx="1121.5" cy="129.5" r="3.5" fill="#DFEEFF"/>
<circle cx="1121.5" cy="150.5" r="3.5" fill="#DFEEFF"/>
<circle cx="1142.5" cy="3.5" r="3.5" fill="#DFEEFF"/>
<circle cx="1142.5" cy="24.5" r="3.5" fill="#DFEEFF"/>
<circle cx="1142.5" cy="45.5" r="3.5" fill="#DFEEFF"/>
<circle cx="1142.5" cy="66.5" r="3.5" fill="#DFEEFF"/>
<circle cx="1142.5" cy="87.5" r="3.5" fill="#DFEEFF"/>
<circle cx="1142.5" cy="108.5" r="3.5" fill="#DFEEFF"/>
<circle cx="1142.5" cy="129.5" r="3.5" fill="#DFEEFF"/>
<circle cx="1142.5" cy="150.5" r="3.5" fill="#DFEEFF"/>
<circle cx="1163.5" cy="3.5" r="3.5" fill="#DFEEFF"/>
<circle cx="1163.5" cy="24.5" r="3.5" fill="#DFEEFF"/>
<circle cx="1163.5" cy="45.5" r="3.5" fill="#DFEEFF"/>
<circle cx="1163.5" cy="66.5" r="3.5" fill="#DFEEFF"/>
<circle cx="1163.5" cy="87.5" r="3.5" fill="#DFEEFF"/>
<circle cx="1163.5" cy="108.5" r="3.5" fill="#DFEEFF"/>
<circle cx="1163.5" cy="129.5" r="3.5" fill="#DFEEFF"/>
<circle cx="1163.5" cy="150.5" r="3.5" fill="#DFEEFF"/>
<circle cx="1184.5" cy="3.5" r="3.5" fill="#DFEEFF"/>
<circle cx="1184.5" cy="24.5" r="3.5" fill="#DFEEFF"/>
<circle cx="1184.5" cy="45.5" r="3.5" fill="#DFEEFF"/>
<circle cx="1184.5" cy="66.5" r="3.5" fill="#DFEEFF"/>
<circle cx="1184.5" cy="87.5" r="3.5" fill="#DFEEFF"/>
<circle cx="1184.5" cy="108.5" r="3.5" fill="#DFEEFF"/>
<circle cx="1184.5" cy="129.5" r="3.5" fill="#DFEEFF"/>
<circle cx="1184.5" cy="150.5" r="3.5" fill="#DFEEFF"/>
<circle cx="1205.5" cy="3.5" r="3.5" fill="#DFEEFF"/>
<circle cx="1205.5" cy="24.5" r="3.5" fill="#DFEEFF"/>
<circle cx="1205.5" cy="45.5" r="3.5" fill="#DFEEFF"/>
<circle cx="1205.5" cy="66.5" r="3.5" fill="#DFEEFF"/>
<circle cx="1205.5" cy="87.5" r="3.5" fill="#DFEEFF"/>
<circle cx="1205.5" cy="108.5" r="3.5" fill="#DFEEFF"/>
<circle cx="1205.5" cy="129.5" r="3.5" fill="#DFEEFF"/>
<circle cx="1205.5" cy="150.5" r="3.5" fill="#DFEEFF"/>
<circle cx="1226.5" cy="3.5" r="3.5" fill="#DFEEFF"/>
<circle cx="1226.5" cy="24.5" r="3.5" fill="#DFEEFF"/>
<circle cx="1226.5" cy="45.5" r="3.5" fill="#DFEEFF"/>
<circle cx="1226.5" cy="66.5" r="3.5" fill="#DFEEFF"/>
<circle cx="1226.5" cy="87.5" r="3.5" fill="#DFEEFF"/>
<circle cx="1226.5" cy="108.5" r="3.5" fill="#DFEEFF"/>
<circle cx="1226.5" cy="129.5" r="3.5" fill="#DFEEFF"/>
<circle cx="1226.5" cy="150.5" r="3.5" fill="#DFEEFF"/>
<circle cx="1247.5" cy="3.5" r="3.5" fill="#DFEEFF"/>
<circle cx="1247.5" cy="24.5" r="3.5" fill="#DFEEFF"/>
<circle cx="1247.5" cy="45.5" r="3.5" fill="#DFEEFF"/>
<circle cx="1247.5" cy="66.5" r="3.5" fill="#DFEEFF"/>
<circle cx="1247.5" cy="87.5" r="3.5" fill="#DFEEFF"/>
<circle cx="1247.5" cy="108.5" r="3.5" fill="#DFEEFF"/>
<circle cx="1247.5" cy="129.5" r="3.5" fill="#DFEEFF"/>
<circle cx="1247.5" cy="150.5" r="3.5" fill="#DFEEFF"/>
<circle cx="1268.5" cy="3.5" r="3.5" fill="#DFEEFF"/>
<circle cx="1268.5" cy="24.5" r="3.5" fill="#DFEEFF"/>
<circle cx="1268.5" cy="45.5" r="3.5" fill="#DFEEFF"/>
<circle cx="1268.5" cy="66.5" r="3.5" fill="#DFEEFF"/>
<circle cx="1268.5" cy="87.5" r="3.5" fill="#DFEEFF"/>
<circle cx="1268.5" cy="108.5" r="3.5" fill="#DFEEFF"/>
<circle cx="1268.5" cy="129.5" r="3.5" fill="#DFEEFF"/>
<circle cx="1268.5" cy="150.5" r="3.5" fill="#DFEEFF"/>
<path d="M178 209L178 387L100 387C44.7715 387 1.58873e-06 342.228 9.30141e-07 287L0 209L178 209Z" fill="#FFF5DB"/>
<rect x="38" y="56" width="1197" height="292" rx="75" fill="#F4F9FF"/>
<path d="M745.072 214.172C718.985 136.425 776.832 56 858.839 56H1160C1201.42 56 1235 89.5786 1235 131V273C1235 314.421 1201.42 348 1160 348H861.901C818.931 348 780.764 320.549 767.095 279.81L745.072 214.172Z" fill="#2639ED"/>
</svg>
